<?xml version="1.0" standalone="no"?>
<!DOCTYPE svg PUBLIC "-//W3C//DTD SVG 20010904//EN"
 "http://www.w3.org/TR/2001/REC-SVG-20010904/DTD/svg10.dtd">
<svg version="1.0" xmlns="http://www.w3.org/2000/svg"
 width="100.000000pt" height="91.000000pt" viewBox="0 0 100.000000 91.000000"
 preserveAspectRatio="xMidYMid meet">
<metadata>
Created by potrace 1.15, written by Peter Selinger 2001-2017
</metadata>
<g transform="translate(0.000000,91.000000) scale(0.100000,-0.100000)"
fill="#000000" stroke="none">
<path d="M877 764 c-18 -10 -27 -21 -23 -30 3 -8 13 -40 22 -71 21 -72 15
-238 -10 -298 -17 -39 -16 -40 6 -57 32 -24 37 -23 53 16 39 93 48 247 20 358
-23 91 -32 101 -68 82z"/>
<path d="M245 703 c-125 -66 -156 -228 -62 -330 l20 -23 -48 -42 c-53 -47 -95
-124 -95 -176 0 -31 2 -33 32 -30 29 3 33 7 39 39 21 136 188 209 311 137 52
-31 84 -75 96 -134 7 -35 11 -39 40 -42 29 -3 32 -1 32 24 0 60 -24 109 -83
168 -58 59 -58 59 -39 80 71 78 70 205 -2 284 -53 59 -173 81 -241 45z m186
-92 c35 -34 39 -44 39 -87 0 -61 -16 -92 -59 -121 -45 -31 -107 -31 -152 0
-43 29 -59 60 -59 121 0 43 4 53 39 87 36 36 43 39 96 39 53 0 60 -3 96 -39z"/>
<path d="M753 684 c-18 -13 -20 -20 -12 -47 12 -41 12 -163 0 -204 -9 -30 -7
-35 19 -53 32 -23 33 -22 50 39 23 87 6 269 -26 277 -5 2 -19 -4 -31 -12z"/>
</g>
</svg>
