<?xml version="1.0" standalone="no"?>
<!DOCTYPE svg PUBLIC "-//W3C//DTD SVG 20010904//EN"
 "http://www.w3.org/TR/2001/REC-SVG-20010904/DTD/svg10.dtd">
<svg version="1.0" xmlns="http://www.w3.org/2000/svg"
 width="493.000000pt" height="131.000000pt" viewBox="0 0 493.000000 131.000000"
 preserveAspectRatio="xMidYMid meet">
<metadata>
Created by potrace 1.15, written by Peter Selinger 2001-2017
</metadata>
<g transform="translate(0.000000,131.000000) scale(0.100000,-0.100000)"
fill="#000000" stroke="none">
<path fill="#AA1D5C" d="M485 1096 c-134 -43 -243 -137 -303 -263 -33 -71 -37 -87 -40 -179
-5 -115 11 -186 58 -269 67 -117 206 -214 341 -237 82 -14 114 -6 139 35 49
80 11 142 -107 171 -187 46 -285 175 -253 331 23 110 104 183 243 216 70 17
92 27 112 51 30 36 32 81 5 126 -19 31 -21 32 -87 31 -38 0 -86 -6 -108 -13z"/>
<path fill="#AA1D5C" d="M4018 1075 c-68 -22 -101 -69 -106 -151 l-4 -64 -44 0 c-43 0 -44 0
-44 -34 0 -34 1 -35 43 -38 l42 -3 3 -222 2 -223 35 0 35 0 2 223 3 222 62 3
c64 3 76 12 66 51 -5 19 -13 21 -70 21 l-64 0 6 48 c12 84 44 112 130 112 81
0 75 24 75 -317 0 -190 4 -312 10 -324 16 -28 63 -49 112 -49 57 0 72 11 64
44 -5 22 -12 26 -44 26 -21 0 -43 5 -50 12 -9 9 -12 96 -12 330 0 369 12 336
-123 343 -57 4 -96 0 -129 -10z"/>
<path fill="#AA1D5C"  d="M860 1008 c0 -69 -19 -117 -63 -165 -50 -54 -98 -80 -181 -98 -104
-21 -136 -49 -136 -118 0 -55 40 -89 126 -111 171 -43 254 -132 254 -270 l0
-47 44 30 c124 85 206 247 206 404 0 102 -52 240 -118 312 -36 39 -113 105
-124 105 -4 0 -8 -19 -8 -42z"/>
<path fill="#5C6977" d="M2683 968 c-27 -27 -33 -42 -33 -76 l0 -42 -40 0 c-36 0 -40 -2 -40
-25 0 -22 4 -25 39 -25 l39 0 4 -192 c2 -132 7 -200 16 -215 20 -35 65 -53
132 -53 61 0 61 0 58 27 -3 27 -5 28 -50 25 -37 -3 -51 1 -67 17 -20 20 -21
32 -21 206 l0 185 64 0 c67 0 80 7 70 34 -5 12 -21 16 -70 16 l-63 0 -3 76 -3
75 -32 -33z"/>
<path fill="#AA1D5C" d="M4509 843 c-95 -49 -144 -171 -120 -304 22 -129 93 -200 205 -207
160 -10 250 86 251 268 0 74 -4 93 -28 143 -59 120 -186 161 -308 100z m187
-68 c41 -27 64 -89 64 -178 0 -87 -14 -130 -55 -167 -22 -21 -36 -25 -90 -25
-73 0 -96 15 -126 80 -28 60 -26 177 4 235 38 76 132 102 203 55z"/>
<path fill="#5C6977" d="M1505 845 c-50 -17 -117 -89 -133 -142 -17 -56 -15 -172 3 -224 40
-112 156 -162 313 -134 38 6 43 10 38 29 -3 11 -6 24 -6 28 0 4 -15 2 -32 -3
-83 -23 -183 1 -226 56 -71 90 -44 276 47 329 32 19 107 24 186 14 15 -2 21 4
23 23 3 23 -1 27 -35 32 -61 11 -135 7 -178 -8z"/>
<path fill="#5C6977" d="M1895 842 c-82 -39 -126 -120 -127 -236 -2 -169 80 -268 222 -268 65
0 95 10 139 47 59 50 76 97 76 210 0 88 -3 107 -26 150 -37 74 -92 109 -177
113 -50 2 -77 -2 -107 -16z m176 -58 c72 -37 101 -220 49 -314 -32 -58 -78
-83 -143 -77 -98 8 -142 73 -142 207 0 69 5 93 23 127 40 77 130 101 213 57z"/>
<path fill="#5C6977" d="M3031 850 c-81 -35 -129 -111 -138 -220 -11 -128 34 -227 121 -269
51 -25 162 -31 232 -12 37 10 41 14 36 37 -4 21 -9 24 -26 20 -11 -4 -48 -9
-82 -12 -128 -13 -214 51 -214 161 l0 35 181 0 182 0 -6 65 c-12 130 -77 197
-196 202 -36 2 -77 -2 -90 -7z m120 -50 c52 -15 90 -59 96 -114 l6 -46 -147 0
c-164 0 -162 -1 -127 75 27 60 54 79 131 94 3 0 21 -4 41 -9z"/>
<path fill="#5C6977" d="M2290 601 l0 -251 29 0 29 0 4 173 c2 146 6 177 21 200 24 38 75 67
115 67 29 0 32 3 32 30 0 27 -3 30 -30 30 -40 0 -90 -22 -115 -50 l-20 -22 -5
33 c-4 28 -10 35 -32 37 l-28 3 0 -250z"/>
<path fill="#5C6977" d="M3360 844 c0 -3 27 -54 60 -114 33 -60 60 -115 60 -122 0 -7 -31 -67
-69 -133 -54 -94 -66 -122 -55 -128 31 -18 54 7 124 131 l72 127 -62 123 c-61
120 -63 122 -96 122 -19 0 -34 -3 -34 -6z"/>
<path fill="#5C6977" d="M3634 744 c-31 -58 -58 -114 -61 -124 -3 -12 21 -67 63 -144 52 -94
75 -126 93 -131 49 -13 45 11 -27 141 l-71 128 46 85 c25 48 55 101 65 119
l20 32 -36 0 c-34 0 -36 -2 -92 -106z"/>
</g>
</svg>
