<?xml version="1.0" standalone="no"?>
<!DOCTYPE svg PUBLIC "-//W3C//DTD SVG 20010904//EN"
 "http://www.w3.org/TR/2001/REC-SVG-20010904/DTD/svg10.dtd">
<svg version="1.0" xmlns="http://www.w3.org/2000/svg"
 width="493.000000pt" height="131.000000pt" 
 preserveAspectRatio="xMidYMid meet">
<metadata>
Created by potrace 1.15, written by Peter Selinger 2001-2017
</metadata>
<g transform="translate(0.000000,131.000000) scale(0.100000,-0.100000)"
>
<path fill="#AA1D5C" d="M485 1096 c-134 -43 -243 -137 -303 -263 -33 -71 -37 -87 -40 -179
-5 -115 11 -186 58 -269 67 -117 206 -214 341 -237 82 -14 114 -6 139 35 49
80 11 142 -107 171 -187 46 -285 175 -253 331 23 110 104 183 243 216 70 17
92 27 112 51 30 36 32 81 5 126 -19 31 -21 32 -87 31 -38 0 -86 -6 -108 -13z"/>

<path fill="#AA1D5C"  d="M860 1008 c0 -69 -19 -117 -63 -165 -50 -54 -98 -80 -181 -98 -104
-21 -136 -49 -136 -118 0 -55 40 -89 126 -111 171 -43 254 -132 254 -270 l0
-47 44 30 c124 85 206 247 206 404 0 102 -52 240 -118 312 -36 39 -113 105
-124 105 -4 0 -8 -19 -8 -42z"/>



</g>
</svg>
