<?xml version="1.0" standalone="no"?>
<!DOCTYPE svg PUBLIC "-//W3C//DTD SVG 20010904//EN"
 "http://www.w3.org/TR/2001/REC-SVG-20010904/DTD/svg10.dtd">
<svg version="1.0" xmlns="http://www.w3.org/2000/svg"
 width="117.000000pt" height="123.000000pt" viewBox="0 0 117.000000 123.000000"
 preserveAspectRatio="xMidYMid meet">
<metadata>
Created by potrace 1.15, written by Peter Selinger 2001-2017
</metadata>
<g transform="translate(0.000000,123.000000) scale(0.100000,-0.100000)"
fill="#000000" stroke="none">
<path d="M427 920 l-27 -21 0 -174 c0 -164 -1 -173 -20 -178 -15 -4 -20 -14
-20 -41 l0 -36 -46 0 -45 0 3 -170 c4 -213 -1 -205 139 -205 141 0 139 -3 139
211 l0 164 -45 0 c-45 0 -45 0 -45 36 0 27 -5 37 -20 41 -19 5 -20 14 -20 165
0 91 4 168 10 179 14 26 58 25 87 -3 23 -21 23 -21 23 -1 0 46 -70 66 -113 33z
m93 -658 c0 -78 -4 -122 -12 -130 -16 -16 -180 -16 -196 0 -8 8 -12 52 -12
130 l0 118 110 0 110 0 0 -118z"/>
<path d="M656 919 l-26 -20 0 -154 c0 -126 -3 -156 -16 -169 -18 -19 -20 -19
-45 -6 -17 9 -19 22 -19 105 0 78 -3 95 -15 95 -12 0 -15 -16 -15 -86 0 -111
16 -144 71 -144 52 0 59 22 59 184 0 82 5 156 10 167 6 11 21 19 35 19 34 0
45 -27 45 -109 0 -41 4 -71 10 -71 6 0 10 35 10 84 0 79 -2 86 -26 105 -15 12
-32 21 -39 21 -7 0 -24 -9 -39 -21z"/>
<path d="M883 930 c-39 -16 -44 -41 -41 -220 4 -232 21 -229 28 4 4 156 7 180
23 190 12 8 22 8 35 0 15 -10 17 -34 20 -228 1 -132 6 -216 12 -216 12 0 14
429 2 446 -6 10 -47 35 -54 33 -2 0 -13 -4 -25 -9z"/>
<path d="M1060 915 c0 -18 -6 -29 -20 -32 -18 -5 -20 -14 -20 -89 0 -72 3 -87
20 -101 19 -17 20 -30 20 -268 0 -137 -3 -260 -6 -273 -4 -13 -17 -25 -32 -29
-42 -10 -52 17 -52 134 0 62 -4 103 -10 103 -6 0 -10 -45 -10 -114 0 -112 1
-115 26 -135 34 -27 50 -26 79 4 l25 24 0 266 c0 252 1 268 20 292 16 21 20
41 20 100 0 66 -2 75 -20 80 -13 3 -20 14 -20 29 0 12 -4 26 -10 29 -6 4 -10
-5 -10 -20z"/>
<path d="M740 382 c0 -276 2 -285 60 -285 61 0 70 24 70 189 0 120 -2 144 -15
144 -12 0 -15 -25 -17 -146 -3 -127 -5 -148 -20 -158 -13 -8 -23 -8 -35 0 -16
10 -18 36 -21 258 -1 152 -6 246 -12 246 -6 0 -10 -92 -10 -248z"/>
</g>
</svg>
